<mxfile host="app.diagrams.net" agent="Mozilla/5.0 (Windows NT 10.0; Win64; x64) AppleWebKit/537.36 (KHTML, like Gecko) Chrome/135.0.0.0 Safari/537.36" version="26.2.14">
  <diagram name="PÃ¡gina-1" id="u-aHWpdBl-f-Wja8wPqd">
    <mxGraphModel dx="1213" dy="1826" grid="1" gridSize="10" guides="1" tooltips="1" connect="1" arrows="1" fold="1" page="1" pageScale="1" pageWidth="827" pageHeight="1169" math="0" shadow="0">
      <root>
        <mxCell id="0" />
        <mxCell id="1" parent="0" />
        <mxCell id="8ie8HE0XRRQpyueEzKb6-3" value="" style="edgeStyle=orthogonalEdgeStyle;rounded=0;orthogonalLoop=1;jettySize=auto;html=1;" edge="1" parent="1" source="8ie8HE0XRRQpyueEzKb6-1" target="8ie8HE0XRRQpyueEzKb6-2">
          <mxGeometry relative="1" as="geometry" />
        </mxCell>
        <mxCell id="8ie8HE0XRRQpyueEzKb6-1" value="Inicio" style="ellipse;whiteSpace=wrap;html=1;aspect=fixed;" vertex="1" parent="1">
          <mxGeometry x="40" y="10" width="80" height="80" as="geometry" />
        </mxCell>
        <mxCell id="8ie8HE0XRRQpyueEzKb6-5" value="" style="edgeStyle=orthogonalEdgeStyle;rounded=0;orthogonalLoop=1;jettySize=auto;html=1;" edge="1" parent="1" source="8ie8HE0XRRQpyueEzKb6-2" target="8ie8HE0XRRQpyueEzKb6-4">
          <mxGeometry relative="1" as="geometry" />
        </mxCell>
        <mxCell id="8ie8HE0XRRQpyueEzKb6-2" value="crear una matriz tipo double de&amp;nbsp; [10, 10] y un arreglo tipo string con 10 elementos, varibles de iteracion: filas = 0, columnas = 0 y nombre = 0&amp;nbsp;" style="whiteSpace=wrap;html=1;" vertex="1" parent="1">
          <mxGeometry x="180" y="-10" width="120" height="120" as="geometry" />
        </mxCell>
        <mxCell id="8ie8HE0XRRQpyueEzKb6-14" value="" style="edgeStyle=orthogonalEdgeStyle;rounded=0;orthogonalLoop=1;jettySize=auto;html=1;" edge="1" parent="1" source="8ie8HE0XRRQpyueEzKb6-4" target="8ie8HE0XRRQpyueEzKb6-13">
          <mxGeometry relative="1" as="geometry" />
        </mxCell>
        <mxCell id="8ie8HE0XRRQpyueEzKb6-15" value="Si" style="edgeLabel;html=1;align=center;verticalAlign=middle;resizable=0;points=[];" vertex="1" connectable="0" parent="8ie8HE0XRRQpyueEzKb6-14">
          <mxGeometry x="-0.1467" y="1" relative="1" as="geometry">
            <mxPoint x="-1" y="-44" as="offset" />
          </mxGeometry>
        </mxCell>
        <mxCell id="8ie8HE0XRRQpyueEzKb6-4" value="Hay elementos en el arreglo?" style="rhombus;whiteSpace=wrap;html=1;" vertex="1" parent="1">
          <mxGeometry x="400" y="10" width="80" height="80" as="geometry" />
        </mxCell>
        <mxCell id="8ie8HE0XRRQpyueEzKb6-17" value="" style="edgeStyle=orthogonalEdgeStyle;rounded=0;orthogonalLoop=1;jettySize=auto;html=1;" edge="1" parent="1" source="8ie8HE0XRRQpyueEzKb6-13" target="8ie8HE0XRRQpyueEzKb6-16">
          <mxGeometry relative="1" as="geometry" />
        </mxCell>
        <mxCell id="8ie8HE0XRRQpyueEzKb6-13" value="&lt;div&gt;&lt;span style=&quot;background-color: transparent; color: light-dark(rgb(0, 0, 0), rgb(255, 255, 255));&quot;&gt;string nombre[nombre] = Console.ReadLine();&lt;/span&gt;&lt;/div&gt;&lt;div&gt;&lt;span style=&quot;background-color: transparent; color: light-dark(rgb(0, 0, 0), rgb(255, 255, 255));&quot;&gt;nombre++&lt;/span&gt;&lt;/div&gt;" style="whiteSpace=wrap;html=1;" vertex="1" parent="1">
          <mxGeometry x="380" y="240" width="120" height="60" as="geometry" />
        </mxCell>
        <mxCell id="8ie8HE0XRRQpyueEzKb6-21" value="" style="edgeStyle=orthogonalEdgeStyle;rounded=0;orthogonalLoop=1;jettySize=auto;html=1;" edge="1" parent="1" source="8ie8HE0XRRQpyueEzKb6-16" target="8ie8HE0XRRQpyueEzKb6-20">
          <mxGeometry relative="1" as="geometry" />
        </mxCell>
        <mxCell id="8ie8HE0XRRQpyueEzKb6-22" value="no" style="edgeLabel;html=1;align=center;verticalAlign=middle;resizable=0;points=[];" vertex="1" connectable="0" parent="8ie8HE0XRRQpyueEzKb6-21">
          <mxGeometry x="-0.2083" y="1" relative="1" as="geometry">
            <mxPoint x="-1" y="-30" as="offset" />
          </mxGeometry>
        </mxCell>
        <mxCell id="8ie8HE0XRRQpyueEzKb6-16" value="Hay mas elementos en el arreglo?" style="rhombus;whiteSpace=wrap;html=1;" vertex="1" parent="1">
          <mxGeometry x="400" y="340" width="80" height="80" as="geometry" />
        </mxCell>
        <mxCell id="8ie8HE0XRRQpyueEzKb6-18" value="" style="endArrow=classic;html=1;rounded=0;exitX=1;exitY=0.5;exitDx=0;exitDy=0;entryX=1;entryY=0.5;entryDx=0;entryDy=0;" edge="1" parent="1" source="8ie8HE0XRRQpyueEzKb6-16" target="8ie8HE0XRRQpyueEzKb6-4">
          <mxGeometry width="50" height="50" relative="1" as="geometry">
            <mxPoint x="400" y="360" as="sourcePoint" />
            <mxPoint x="570" y="80" as="targetPoint" />
            <Array as="points">
              <mxPoint x="560" y="380" />
              <mxPoint x="560" y="50" />
            </Array>
          </mxGeometry>
        </mxCell>
        <mxCell id="8ie8HE0XRRQpyueEzKb6-19" value="Si" style="edgeLabel;html=1;align=center;verticalAlign=middle;resizable=0;points=[];" vertex="1" connectable="0" parent="8ie8HE0XRRQpyueEzKb6-18">
          <mxGeometry x="0.0807" y="-2" relative="1" as="geometry">
            <mxPoint as="offset" />
          </mxGeometry>
        </mxCell>
        <mxCell id="8ie8HE0XRRQpyueEzKb6-25" value="" style="edgeStyle=orthogonalEdgeStyle;rounded=0;orthogonalLoop=1;jettySize=auto;html=1;" edge="1" parent="1" source="8ie8HE0XRRQpyueEzKb6-20" target="8ie8HE0XRRQpyueEzKb6-24">
          <mxGeometry relative="1" as="geometry" />
        </mxCell>
        <mxCell id="8ie8HE0XRRQpyueEzKb6-26" value="Si" style="edgeLabel;html=1;align=center;verticalAlign=middle;resizable=0;points=[];" vertex="1" connectable="0" parent="8ie8HE0XRRQpyueEzKb6-25">
          <mxGeometry x="-0.1143" y="2" relative="1" as="geometry">
            <mxPoint as="offset" />
          </mxGeometry>
        </mxCell>
        <mxCell id="8ie8HE0XRRQpyueEzKb6-20" value="filas &amp;lt; 10? filas++" style="rhombus;whiteSpace=wrap;html=1;" vertex="1" parent="1">
          <mxGeometry x="400" y="520" width="80" height="80" as="geometry" />
        </mxCell>
        <mxCell id="8ie8HE0XRRQpyueEzKb6-23" value="Ingresa el nombre del estudiante (nombre+1)" style="shape=document;whiteSpace=wrap;html=1;boundedLbl=1;" vertex="1" parent="1">
          <mxGeometry x="380" y="130" width="120" height="80" as="geometry" />
        </mxCell>
        <mxCell id="8ie8HE0XRRQpyueEzKb6-24" value="columnas &amp;lt; 10? columnas++" style="rhombus;whiteSpace=wrap;html=1;" vertex="1" parent="1">
          <mxGeometry x="400" y="650" width="80" height="80" as="geometry" />
        </mxCell>
        <mxCell id="8ie8HE0XRRQpyueEzKb6-28" value="Ingresa la nota&amp;nbsp;" style="shape=document;whiteSpace=wrap;html=1;boundedLbl=1;" vertex="1" parent="1">
          <mxGeometry x="380" y="770" width="120" height="80" as="geometry" />
        </mxCell>
        <mxCell id="8ie8HE0XRRQpyueEzKb6-29" value="" style="endArrow=classic;html=1;rounded=0;exitX=0.5;exitY=1;exitDx=0;exitDy=0;entryX=0.5;entryY=0;entryDx=0;entryDy=0;" edge="1" parent="1" source="8ie8HE0XRRQpyueEzKb6-24" target="8ie8HE0XRRQpyueEzKb6-28">
          <mxGeometry width="50" height="50" relative="1" as="geometry">
            <mxPoint x="340" y="590" as="sourcePoint" />
            <mxPoint x="390" y="540" as="targetPoint" />
          </mxGeometry>
        </mxCell>
        <mxCell id="8ie8HE0XRRQpyueEzKb6-30" value="nombre&amp;nbsp; = 1" style="rounded=0;whiteSpace=wrap;html=1;" vertex="1" parent="1">
          <mxGeometry x="380" y="440" width="120" height="60" as="geometry" />
        </mxCell>
      </root>
    </mxGraphModel>
  </diagram>
</mxfile>
